<mxfile host="app.diagrams.net" modified="2020-04-16T13:36:15.059Z" agent="5.0 (Windows NT 10.0; Win64; x64) AppleWebKit/537.36 (KHTML, like Gecko) Chrome/80.0.3987.163 Safari/537.36" etag="t9DgDG8vvzHIOAc1gtpl" version="12.9.13" type="github">
  <diagram id="XAY0O6MmupqiCX3-Y2Fd" name="Page-1">
    <mxGraphModel dx="981" dy="526" grid="1" gridSize="10" guides="1" tooltips="1" connect="1" arrows="1" fold="1" page="1" pageScale="1" pageWidth="850" pageHeight="1100" math="0" shadow="0">
      <root>
        <mxCell id="0" />
        <mxCell id="1" parent="0" />
        <mxCell id="f3lGKb51ZhDUjjMCLyhJ-93" value="" style="rounded=0;whiteSpace=wrap;html=1;fillColor=none;verticalAlign=top;spacing=0;align=left;dashed=1;" vertex="1" parent="1">
          <mxGeometry x="60" y="40" width="130" height="176" as="geometry" />
        </mxCell>
        <mxCell id="f3lGKb51ZhDUjjMCLyhJ-1" value="Article" style="rounded=0;whiteSpace=wrap;html=1;fillColor=none;verticalAlign=top;" vertex="1" parent="1">
          <mxGeometry x="20" y="310" width="150" height="270" as="geometry" />
        </mxCell>
        <mxCell id="f3lGKb51ZhDUjjMCLyhJ-32" value="" style="group" vertex="1" connectable="0" parent="1">
          <mxGeometry x="30" y="360" width="130" height="50" as="geometry" />
        </mxCell>
        <mxCell id="f3lGKb51ZhDUjjMCLyhJ-8" value="" style="group" vertex="1" connectable="0" parent="f3lGKb51ZhDUjjMCLyhJ-32">
          <mxGeometry x="53.18181818181819" y="5.555555555555555" width="70.90909090909092" height="38.888888888888886" as="geometry" />
        </mxCell>
        <mxCell id="f3lGKb51ZhDUjjMCLyhJ-2" value="" style="rounded=0;whiteSpace=wrap;html=1;fillColor=#B3B3B3;strokeColor=none;" vertex="1" parent="f3lGKb51ZhDUjjMCLyhJ-8">
          <mxGeometry width="70.90909090909092" height="5.5555555555555545" as="geometry" />
        </mxCell>
        <mxCell id="f3lGKb51ZhDUjjMCLyhJ-3" value="" style="rounded=0;whiteSpace=wrap;html=1;fillColor=#B3B3B3;strokeColor=none;" vertex="1" parent="f3lGKb51ZhDUjjMCLyhJ-8">
          <mxGeometry y="11.111111111111109" width="70.90909090909092" height="5.5555555555555545" as="geometry" />
        </mxCell>
        <mxCell id="f3lGKb51ZhDUjjMCLyhJ-4" value="" style="rounded=0;whiteSpace=wrap;html=1;fillColor=#B3B3B3;strokeColor=none;" vertex="1" parent="f3lGKb51ZhDUjjMCLyhJ-8">
          <mxGeometry y="22.222222222222218" width="70.90909090909092" height="5.5555555555555545" as="geometry" />
        </mxCell>
        <mxCell id="f3lGKb51ZhDUjjMCLyhJ-7" value="" style="rounded=0;whiteSpace=wrap;html=1;fillColor=#B3B3B3;strokeColor=none;" vertex="1" parent="f3lGKb51ZhDUjjMCLyhJ-8">
          <mxGeometry y="33.33333333333332" width="47.27272727272727" height="5.5555555555555545" as="geometry" />
        </mxCell>
        <mxCell id="f3lGKb51ZhDUjjMCLyhJ-12" value="Block Image-Left" style="rounded=0;whiteSpace=wrap;html=1;fillColor=none;verticalAlign=top;spacing=0;" vertex="1" parent="f3lGKb51ZhDUjjMCLyhJ-32">
          <mxGeometry y="-20" width="130" height="70" as="geometry" />
        </mxCell>
        <mxCell id="f3lGKb51ZhDUjjMCLyhJ-21" value="" style="group" vertex="1" connectable="0" parent="f3lGKb51ZhDUjjMCLyhJ-32">
          <mxGeometry x="5.909090909090909" y="5.555555555555555" width="41.36363636363637" height="38.888888888888886" as="geometry" />
        </mxCell>
        <mxCell id="f3lGKb51ZhDUjjMCLyhJ-14" value="" style="rounded=0;whiteSpace=wrap;html=1;fillColor=none;strokeColor=#B3B3B3;strokeWidth=5;" vertex="1" parent="f3lGKb51ZhDUjjMCLyhJ-21">
          <mxGeometry width="41.36363636363637" height="38.888888888888886" as="geometry" />
        </mxCell>
        <mxCell id="f3lGKb51ZhDUjjMCLyhJ-17" value="" style="endArrow=none;html=1;strokeColor=#B3B3B3;exitX=0;exitY=0;exitDx=0;exitDy=0;entryX=1;entryY=1;entryDx=0;entryDy=0;strokeWidth=5;" edge="1" parent="f3lGKb51ZhDUjjMCLyhJ-21" source="f3lGKb51ZhDUjjMCLyhJ-14" target="f3lGKb51ZhDUjjMCLyhJ-14">
          <mxGeometry width="50" height="50" relative="1" as="geometry">
            <mxPoint x="15.90909090909091" y="-6.481481481481481" as="sourcePoint" />
            <mxPoint x="31.81818181818182" y="-38.888888888888886" as="targetPoint" />
          </mxGeometry>
        </mxCell>
        <mxCell id="f3lGKb51ZhDUjjMCLyhJ-18" value="" style="endArrow=none;html=1;strokeColor=#B3B3B3;exitX=0;exitY=1;exitDx=0;exitDy=0;entryX=1;entryY=0;entryDx=0;entryDy=0;strokeWidth=5;" edge="1" parent="f3lGKb51ZhDUjjMCLyhJ-21" source="f3lGKb51ZhDUjjMCLyhJ-14" target="f3lGKb51ZhDUjjMCLyhJ-14">
          <mxGeometry width="50" height="50" relative="1" as="geometry">
            <mxPoint x="3.1818181818181817" y="6.481481481481481" as="sourcePoint" />
            <mxPoint x="44.54545454545455" y="45.370370370370374" as="targetPoint" />
          </mxGeometry>
        </mxCell>
        <mxCell id="f3lGKb51ZhDUjjMCLyhJ-33" value="" style="group" vertex="1" connectable="0" parent="1">
          <mxGeometry x="30" y="440" width="130" height="50" as="geometry" />
        </mxCell>
        <mxCell id="f3lGKb51ZhDUjjMCLyhJ-22" value="" style="group" vertex="1" connectable="0" parent="f3lGKb51ZhDUjjMCLyhJ-33">
          <mxGeometry x="5.909090909090909" y="5.555555555555555" width="70.9090909090909" height="38.88888888888889" as="geometry" />
        </mxCell>
        <mxCell id="f3lGKb51ZhDUjjMCLyhJ-23" value="" style="rounded=0;whiteSpace=wrap;html=1;fillColor=#B3B3B3;strokeColor=none;" vertex="1" parent="f3lGKb51ZhDUjjMCLyhJ-22">
          <mxGeometry width="70.9090909090909" height="5.555555555555555" as="geometry" />
        </mxCell>
        <mxCell id="f3lGKb51ZhDUjjMCLyhJ-24" value="" style="rounded=0;whiteSpace=wrap;html=1;fillColor=#B3B3B3;strokeColor=none;" vertex="1" parent="f3lGKb51ZhDUjjMCLyhJ-22">
          <mxGeometry y="11.11111111111111" width="70.9090909090909" height="5.555555555555555" as="geometry" />
        </mxCell>
        <mxCell id="f3lGKb51ZhDUjjMCLyhJ-25" value="" style="rounded=0;whiteSpace=wrap;html=1;fillColor=#B3B3B3;strokeColor=none;" vertex="1" parent="f3lGKb51ZhDUjjMCLyhJ-22">
          <mxGeometry y="22.22222222222222" width="70.9090909090909" height="5.555555555555555" as="geometry" />
        </mxCell>
        <mxCell id="f3lGKb51ZhDUjjMCLyhJ-26" value="" style="rounded=0;whiteSpace=wrap;html=1;fillColor=#B3B3B3;strokeColor=none;" vertex="1" parent="f3lGKb51ZhDUjjMCLyhJ-22">
          <mxGeometry y="33.333333333333336" width="47.27272727272727" height="5.555555555555555" as="geometry" />
        </mxCell>
        <mxCell id="f3lGKb51ZhDUjjMCLyhJ-27" value="Block Image-Right" style="rounded=0;whiteSpace=wrap;html=1;fillColor=none;spacing=0;verticalAlign=top;" vertex="1" parent="f3lGKb51ZhDUjjMCLyhJ-33">
          <mxGeometry y="-20" width="130" height="70" as="geometry" />
        </mxCell>
        <mxCell id="f3lGKb51ZhDUjjMCLyhJ-29" value="" style="rounded=0;whiteSpace=wrap;html=1;fillColor=none;strokeColor=#B3B3B3;strokeWidth=5;" vertex="1" parent="f3lGKb51ZhDUjjMCLyhJ-33">
          <mxGeometry x="82.72727272727273" y="5.555555555555555" width="41.36363636363637" height="38.88888888888889" as="geometry" />
        </mxCell>
        <mxCell id="f3lGKb51ZhDUjjMCLyhJ-30" value="" style="endArrow=none;html=1;strokeColor=#B3B3B3;exitX=0;exitY=0;exitDx=0;exitDy=0;entryX=1;entryY=1;entryDx=0;entryDy=0;strokeWidth=5;" edge="1" parent="f3lGKb51ZhDUjjMCLyhJ-33" source="f3lGKb51ZhDUjjMCLyhJ-29" target="f3lGKb51ZhDUjjMCLyhJ-29">
          <mxGeometry width="50" height="50" relative="1" as="geometry">
            <mxPoint x="-25.454545454545467" y="-0.9259259259259365" as="sourcePoint" />
            <mxPoint x="-9.545454545454566" y="-33.333333333333336" as="targetPoint" />
          </mxGeometry>
        </mxCell>
        <mxCell id="f3lGKb51ZhDUjjMCLyhJ-31" value="" style="endArrow=none;html=1;strokeColor=#B3B3B3;exitX=0;exitY=1;exitDx=0;exitDy=0;entryX=1;entryY=0;entryDx=0;entryDy=0;strokeWidth=5;" edge="1" parent="f3lGKb51ZhDUjjMCLyhJ-33" source="f3lGKb51ZhDUjjMCLyhJ-29" target="f3lGKb51ZhDUjjMCLyhJ-29">
          <mxGeometry width="50" height="50" relative="1" as="geometry">
            <mxPoint x="-38.1818181818182" y="12.037037037037049" as="sourcePoint" />
            <mxPoint x="3.1818181818181666" y="50.92592592592594" as="targetPoint" />
          </mxGeometry>
        </mxCell>
        <mxCell id="f3lGKb51ZhDUjjMCLyhJ-101" value="" style="rounded=0;whiteSpace=wrap;html=1;fillColor=#B3B3B3;strokeColor=none;" vertex="1" parent="1">
          <mxGeometry x="63.5" y="46" width="120" height="12" as="geometry" />
        </mxCell>
        <mxCell id="f3lGKb51ZhDUjjMCLyhJ-88" value="" style="group" vertex="1" connectable="0" parent="1">
          <mxGeometry x="113.18181818181819" y="65.55555555555556" width="70.90909090909092" height="38.888888888888886" as="geometry" />
        </mxCell>
        <mxCell id="f3lGKb51ZhDUjjMCLyhJ-89" value="" style="rounded=0;whiteSpace=wrap;html=1;fillColor=#B3B3B3;strokeColor=none;" vertex="1" parent="f3lGKb51ZhDUjjMCLyhJ-88">
          <mxGeometry width="70.90909090909092" height="5.5555555555555545" as="geometry" />
        </mxCell>
        <mxCell id="f3lGKb51ZhDUjjMCLyhJ-90" value="" style="rounded=0;whiteSpace=wrap;html=1;fillColor=#B3B3B3;strokeColor=none;" vertex="1" parent="f3lGKb51ZhDUjjMCLyhJ-88">
          <mxGeometry y="11.111111111111109" width="70.90909090909092" height="5.5555555555555545" as="geometry" />
        </mxCell>
        <mxCell id="f3lGKb51ZhDUjjMCLyhJ-91" value="" style="rounded=0;whiteSpace=wrap;html=1;fillColor=#B3B3B3;strokeColor=none;" vertex="1" parent="f3lGKb51ZhDUjjMCLyhJ-88">
          <mxGeometry y="22.222222222222218" width="70.90909090909092" height="5.5555555555555545" as="geometry" />
        </mxCell>
        <mxCell id="f3lGKb51ZhDUjjMCLyhJ-92" value="" style="rounded=0;whiteSpace=wrap;html=1;fillColor=#B3B3B3;strokeColor=none;" vertex="1" parent="f3lGKb51ZhDUjjMCLyhJ-88">
          <mxGeometry y="33.33333333333332" width="47.27272727272727" height="5.5555555555555545" as="geometry" />
        </mxCell>
        <mxCell id="f3lGKb51ZhDUjjMCLyhJ-94" value="" style="group" vertex="1" connectable="0" parent="1">
          <mxGeometry x="65.9090909090909" y="65.55555555555556" width="41.36363636363637" height="38.888888888888886" as="geometry" />
        </mxCell>
        <mxCell id="f3lGKb51ZhDUjjMCLyhJ-95" value="" style="rounded=0;whiteSpace=wrap;html=1;fillColor=none;strokeColor=#B3B3B3;strokeWidth=5;" vertex="1" parent="f3lGKb51ZhDUjjMCLyhJ-94">
          <mxGeometry width="41.36363636363637" height="38.888888888888886" as="geometry" />
        </mxCell>
        <mxCell id="f3lGKb51ZhDUjjMCLyhJ-96" value="" style="endArrow=none;html=1;strokeColor=#B3B3B3;exitX=0;exitY=0;exitDx=0;exitDy=0;entryX=1;entryY=1;entryDx=0;entryDy=0;strokeWidth=5;" edge="1" parent="f3lGKb51ZhDUjjMCLyhJ-94" source="f3lGKb51ZhDUjjMCLyhJ-95" target="f3lGKb51ZhDUjjMCLyhJ-95">
          <mxGeometry width="50" height="50" relative="1" as="geometry">
            <mxPoint x="15.90909090909091" y="-6.481481481481481" as="sourcePoint" />
            <mxPoint x="31.81818181818182" y="-38.888888888888886" as="targetPoint" />
          </mxGeometry>
        </mxCell>
        <mxCell id="f3lGKb51ZhDUjjMCLyhJ-97" value="" style="endArrow=none;html=1;strokeColor=#B3B3B3;exitX=0;exitY=1;exitDx=0;exitDy=0;entryX=1;entryY=0;entryDx=0;entryDy=0;strokeWidth=5;" edge="1" parent="f3lGKb51ZhDUjjMCLyhJ-94" source="f3lGKb51ZhDUjjMCLyhJ-95" target="f3lGKb51ZhDUjjMCLyhJ-95">
          <mxGeometry width="50" height="50" relative="1" as="geometry">
            <mxPoint x="3.1818181818181817" y="6.481481481481481" as="sourcePoint" />
            <mxPoint x="44.54545454545455" y="45.370370370370374" as="targetPoint" />
          </mxGeometry>
        </mxCell>
        <mxCell id="f3lGKb51ZhDUjjMCLyhJ-119" value="" style="group" vertex="1" connectable="0" parent="1">
          <mxGeometry x="113.27181818181819" y="116.99555555555554" width="70.90909090909092" height="38.888888888888886" as="geometry" />
        </mxCell>
        <mxCell id="f3lGKb51ZhDUjjMCLyhJ-120" value="" style="rounded=0;whiteSpace=wrap;html=1;fillColor=#B3B3B3;strokeColor=none;" vertex="1" parent="f3lGKb51ZhDUjjMCLyhJ-119">
          <mxGeometry width="70.90909090909092" height="5.5555555555555545" as="geometry" />
        </mxCell>
        <mxCell id="f3lGKb51ZhDUjjMCLyhJ-121" value="" style="rounded=0;whiteSpace=wrap;html=1;fillColor=#B3B3B3;strokeColor=none;" vertex="1" parent="f3lGKb51ZhDUjjMCLyhJ-119">
          <mxGeometry y="11.111111111111109" width="70.90909090909092" height="5.5555555555555545" as="geometry" />
        </mxCell>
        <mxCell id="f3lGKb51ZhDUjjMCLyhJ-122" value="" style="rounded=0;whiteSpace=wrap;html=1;fillColor=#B3B3B3;strokeColor=none;" vertex="1" parent="f3lGKb51ZhDUjjMCLyhJ-119">
          <mxGeometry y="22.222222222222218" width="70.90909090909092" height="5.5555555555555545" as="geometry" />
        </mxCell>
        <mxCell id="f3lGKb51ZhDUjjMCLyhJ-123" value="" style="rounded=0;whiteSpace=wrap;html=1;fillColor=#B3B3B3;strokeColor=none;" vertex="1" parent="f3lGKb51ZhDUjjMCLyhJ-119">
          <mxGeometry y="33.33333333333332" width="47.27272727272727" height="5.5555555555555545" as="geometry" />
        </mxCell>
        <mxCell id="f3lGKb51ZhDUjjMCLyhJ-124" value="" style="group" vertex="1" connectable="0" parent="1">
          <mxGeometry x="65.99909090909091" y="116.99555555555554" width="41.36363636363637" height="38.888888888888886" as="geometry" />
        </mxCell>
        <mxCell id="f3lGKb51ZhDUjjMCLyhJ-125" value="" style="rounded=0;whiteSpace=wrap;html=1;fillColor=none;strokeColor=#B3B3B3;strokeWidth=5;" vertex="1" parent="f3lGKb51ZhDUjjMCLyhJ-124">
          <mxGeometry width="41.36363636363637" height="38.888888888888886" as="geometry" />
        </mxCell>
        <mxCell id="f3lGKb51ZhDUjjMCLyhJ-126" value="" style="endArrow=none;html=1;strokeColor=#B3B3B3;exitX=0;exitY=0;exitDx=0;exitDy=0;entryX=1;entryY=1;entryDx=0;entryDy=0;strokeWidth=5;" edge="1" parent="f3lGKb51ZhDUjjMCLyhJ-124" source="f3lGKb51ZhDUjjMCLyhJ-125" target="f3lGKb51ZhDUjjMCLyhJ-125">
          <mxGeometry width="50" height="50" relative="1" as="geometry">
            <mxPoint x="15.90909090909091" y="-6.481481481481481" as="sourcePoint" />
            <mxPoint x="31.81818181818182" y="-38.888888888888886" as="targetPoint" />
          </mxGeometry>
        </mxCell>
        <mxCell id="f3lGKb51ZhDUjjMCLyhJ-127" value="" style="endArrow=none;html=1;strokeColor=#B3B3B3;exitX=0;exitY=1;exitDx=0;exitDy=0;entryX=1;entryY=0;entryDx=0;entryDy=0;strokeWidth=5;" edge="1" parent="f3lGKb51ZhDUjjMCLyhJ-124" source="f3lGKb51ZhDUjjMCLyhJ-125" target="f3lGKb51ZhDUjjMCLyhJ-125">
          <mxGeometry width="50" height="50" relative="1" as="geometry">
            <mxPoint x="3.1818181818181817" y="6.481481481481481" as="sourcePoint" />
            <mxPoint x="44.54545454545455" y="45.370370370370374" as="targetPoint" />
          </mxGeometry>
        </mxCell>
        <mxCell id="f3lGKb51ZhDUjjMCLyhJ-138" value="" style="group" vertex="1" connectable="0" parent="1">
          <mxGeometry x="113.27181818181819" y="167.99555555555554" width="70.90909090909092" height="38.888888888888886" as="geometry" />
        </mxCell>
        <mxCell id="f3lGKb51ZhDUjjMCLyhJ-139" value="" style="rounded=0;whiteSpace=wrap;html=1;fillColor=#B3B3B3;strokeColor=none;" vertex="1" parent="f3lGKb51ZhDUjjMCLyhJ-138">
          <mxGeometry width="70.90909090909092" height="5.5555555555555545" as="geometry" />
        </mxCell>
        <mxCell id="f3lGKb51ZhDUjjMCLyhJ-140" value="" style="rounded=0;whiteSpace=wrap;html=1;fillColor=#B3B3B3;strokeColor=none;" vertex="1" parent="f3lGKb51ZhDUjjMCLyhJ-138">
          <mxGeometry y="11.111111111111109" width="70.90909090909092" height="5.5555555555555545" as="geometry" />
        </mxCell>
        <mxCell id="f3lGKb51ZhDUjjMCLyhJ-141" value="" style="rounded=0;whiteSpace=wrap;html=1;fillColor=#B3B3B3;strokeColor=none;" vertex="1" parent="f3lGKb51ZhDUjjMCLyhJ-138">
          <mxGeometry y="22.222222222222218" width="70.90909090909092" height="5.5555555555555545" as="geometry" />
        </mxCell>
        <mxCell id="f3lGKb51ZhDUjjMCLyhJ-142" value="" style="rounded=0;whiteSpace=wrap;html=1;fillColor=#B3B3B3;strokeColor=none;" vertex="1" parent="f3lGKb51ZhDUjjMCLyhJ-138">
          <mxGeometry y="33.33333333333332" width="47.27272727272727" height="5.5555555555555545" as="geometry" />
        </mxCell>
        <mxCell id="f3lGKb51ZhDUjjMCLyhJ-143" value="" style="group" vertex="1" connectable="0" parent="1">
          <mxGeometry x="65.99909090909091" y="167.99555555555554" width="41.36363636363637" height="38.888888888888886" as="geometry" />
        </mxCell>
        <mxCell id="f3lGKb51ZhDUjjMCLyhJ-144" value="" style="rounded=0;whiteSpace=wrap;html=1;fillColor=none;strokeColor=#B3B3B3;strokeWidth=5;" vertex="1" parent="f3lGKb51ZhDUjjMCLyhJ-143">
          <mxGeometry width="41.36363636363637" height="38.888888888888886" as="geometry" />
        </mxCell>
        <mxCell id="f3lGKb51ZhDUjjMCLyhJ-145" value="" style="endArrow=none;html=1;strokeColor=#B3B3B3;exitX=0;exitY=0;exitDx=0;exitDy=0;entryX=1;entryY=1;entryDx=0;entryDy=0;strokeWidth=5;" edge="1" parent="f3lGKb51ZhDUjjMCLyhJ-143" source="f3lGKb51ZhDUjjMCLyhJ-144" target="f3lGKb51ZhDUjjMCLyhJ-144">
          <mxGeometry width="50" height="50" relative="1" as="geometry">
            <mxPoint x="15.90909090909091" y="-6.481481481481481" as="sourcePoint" />
            <mxPoint x="31.81818181818182" y="-38.888888888888886" as="targetPoint" />
          </mxGeometry>
        </mxCell>
        <mxCell id="f3lGKb51ZhDUjjMCLyhJ-146" value="" style="endArrow=none;html=1;strokeColor=#B3B3B3;exitX=0;exitY=1;exitDx=0;exitDy=0;entryX=1;entryY=0;entryDx=0;entryDy=0;strokeWidth=5;" edge="1" parent="f3lGKb51ZhDUjjMCLyhJ-143" source="f3lGKb51ZhDUjjMCLyhJ-144" target="f3lGKb51ZhDUjjMCLyhJ-144">
          <mxGeometry width="50" height="50" relative="1" as="geometry">
            <mxPoint x="3.1818181818181817" y="6.481481481481481" as="sourcePoint" />
            <mxPoint x="44.54545454545455" y="45.370370370370374" as="targetPoint" />
          </mxGeometry>
        </mxCell>
        <mxCell id="f3lGKb51ZhDUjjMCLyhJ-147" value="Professional" style="text;html=1;strokeColor=none;fillColor=none;align=center;verticalAlign=middle;whiteSpace=wrap;rounded=0;" vertex="1" parent="1">
          <mxGeometry x="88.5" y="20" width="70" height="20" as="geometry" />
        </mxCell>
        <mxCell id="f3lGKb51ZhDUjjMCLyhJ-179" value="" style="rounded=0;whiteSpace=wrap;html=1;fillColor=none;verticalAlign=top;spacing=0;align=left;dashed=1;" vertex="1" parent="1">
          <mxGeometry x="220" y="40" width="130" height="176" as="geometry" />
        </mxCell>
        <mxCell id="f3lGKb51ZhDUjjMCLyhJ-180" value="" style="rounded=0;whiteSpace=wrap;html=1;fillColor=#B3B3B3;strokeColor=none;" vertex="1" parent="1">
          <mxGeometry x="223.5" y="46" width="120" height="12" as="geometry" />
        </mxCell>
        <mxCell id="f3lGKb51ZhDUjjMCLyhJ-181" value="" style="group" vertex="1" connectable="0" parent="1">
          <mxGeometry x="273.1818181818182" y="65.55555555555556" width="70.90909090909092" height="38.888888888888886" as="geometry" />
        </mxCell>
        <mxCell id="f3lGKb51ZhDUjjMCLyhJ-182" value="" style="rounded=0;whiteSpace=wrap;html=1;fillColor=#B3B3B3;strokeColor=none;" vertex="1" parent="f3lGKb51ZhDUjjMCLyhJ-181">
          <mxGeometry width="70.90909090909092" height="5.5555555555555545" as="geometry" />
        </mxCell>
        <mxCell id="f3lGKb51ZhDUjjMCLyhJ-183" value="" style="rounded=0;whiteSpace=wrap;html=1;fillColor=#B3B3B3;strokeColor=none;" vertex="1" parent="f3lGKb51ZhDUjjMCLyhJ-181">
          <mxGeometry y="11.111111111111109" width="70.90909090909092" height="5.5555555555555545" as="geometry" />
        </mxCell>
        <mxCell id="f3lGKb51ZhDUjjMCLyhJ-184" value="" style="rounded=0;whiteSpace=wrap;html=1;fillColor=#B3B3B3;strokeColor=none;" vertex="1" parent="f3lGKb51ZhDUjjMCLyhJ-181">
          <mxGeometry y="22.222222222222218" width="70.90909090909092" height="5.5555555555555545" as="geometry" />
        </mxCell>
        <mxCell id="f3lGKb51ZhDUjjMCLyhJ-185" value="" style="rounded=0;whiteSpace=wrap;html=1;fillColor=#B3B3B3;strokeColor=none;" vertex="1" parent="f3lGKb51ZhDUjjMCLyhJ-181">
          <mxGeometry y="33.33333333333332" width="47.27272727272727" height="5.5555555555555545" as="geometry" />
        </mxCell>
        <mxCell id="f3lGKb51ZhDUjjMCLyhJ-186" value="" style="group" vertex="1" connectable="0" parent="1">
          <mxGeometry x="225.9090909090909" y="65.55555555555556" width="41.36363636363637" height="38.888888888888886" as="geometry" />
        </mxCell>
        <mxCell id="f3lGKb51ZhDUjjMCLyhJ-187" value="" style="rounded=0;whiteSpace=wrap;html=1;fillColor=none;strokeColor=#B3B3B3;strokeWidth=5;" vertex="1" parent="f3lGKb51ZhDUjjMCLyhJ-186">
          <mxGeometry width="41.36363636363637" height="38.888888888888886" as="geometry" />
        </mxCell>
        <mxCell id="f3lGKb51ZhDUjjMCLyhJ-188" value="" style="endArrow=none;html=1;strokeColor=#B3B3B3;exitX=0;exitY=0;exitDx=0;exitDy=0;entryX=1;entryY=1;entryDx=0;entryDy=0;strokeWidth=5;" edge="1" parent="f3lGKb51ZhDUjjMCLyhJ-186" source="f3lGKb51ZhDUjjMCLyhJ-187" target="f3lGKb51ZhDUjjMCLyhJ-187">
          <mxGeometry width="50" height="50" relative="1" as="geometry">
            <mxPoint x="15.90909090909091" y="-6.481481481481481" as="sourcePoint" />
            <mxPoint x="31.81818181818182" y="-38.888888888888886" as="targetPoint" />
          </mxGeometry>
        </mxCell>
        <mxCell id="f3lGKb51ZhDUjjMCLyhJ-189" value="" style="endArrow=none;html=1;strokeColor=#B3B3B3;exitX=0;exitY=1;exitDx=0;exitDy=0;entryX=1;entryY=0;entryDx=0;entryDy=0;strokeWidth=5;" edge="1" parent="f3lGKb51ZhDUjjMCLyhJ-186" source="f3lGKb51ZhDUjjMCLyhJ-187" target="f3lGKb51ZhDUjjMCLyhJ-187">
          <mxGeometry width="50" height="50" relative="1" as="geometry">
            <mxPoint x="3.1818181818181817" y="6.481481481481481" as="sourcePoint" />
            <mxPoint x="44.54545454545455" y="45.370370370370374" as="targetPoint" />
          </mxGeometry>
        </mxCell>
        <mxCell id="f3lGKb51ZhDUjjMCLyhJ-190" value="" style="group" vertex="1" connectable="0" parent="1">
          <mxGeometry x="223.50181818181818" y="116.99555555555555" width="70.90909090909092" height="38.888888888888886" as="geometry" />
        </mxCell>
        <mxCell id="f3lGKb51ZhDUjjMCLyhJ-191" value="" style="rounded=0;whiteSpace=wrap;html=1;fillColor=#B3B3B3;strokeColor=none;" vertex="1" parent="f3lGKb51ZhDUjjMCLyhJ-190">
          <mxGeometry width="70.90909090909092" height="5.5555555555555545" as="geometry" />
        </mxCell>
        <mxCell id="f3lGKb51ZhDUjjMCLyhJ-192" value="" style="rounded=0;whiteSpace=wrap;html=1;fillColor=#B3B3B3;strokeColor=none;" vertex="1" parent="f3lGKb51ZhDUjjMCLyhJ-190">
          <mxGeometry y="11.111111111111109" width="70.90909090909092" height="5.5555555555555545" as="geometry" />
        </mxCell>
        <mxCell id="f3lGKb51ZhDUjjMCLyhJ-193" value="" style="rounded=0;whiteSpace=wrap;html=1;fillColor=#B3B3B3;strokeColor=none;" vertex="1" parent="f3lGKb51ZhDUjjMCLyhJ-190">
          <mxGeometry y="22.222222222222218" width="70.90909090909092" height="5.5555555555555545" as="geometry" />
        </mxCell>
        <mxCell id="f3lGKb51ZhDUjjMCLyhJ-194" value="" style="rounded=0;whiteSpace=wrap;html=1;fillColor=#B3B3B3;strokeColor=none;" vertex="1" parent="f3lGKb51ZhDUjjMCLyhJ-190">
          <mxGeometry y="33.33333333333332" width="47.27272727272727" height="5.5555555555555545" as="geometry" />
        </mxCell>
        <mxCell id="f3lGKb51ZhDUjjMCLyhJ-199" value="" style="group" vertex="1" connectable="0" parent="1">
          <mxGeometry x="273.27181818181816" y="167.99555555555554" width="70.90909090909092" height="38.888888888888886" as="geometry" />
        </mxCell>
        <mxCell id="f3lGKb51ZhDUjjMCLyhJ-200" value="" style="rounded=0;whiteSpace=wrap;html=1;fillColor=#B3B3B3;strokeColor=none;" vertex="1" parent="f3lGKb51ZhDUjjMCLyhJ-199">
          <mxGeometry width="70.90909090909092" height="5.5555555555555545" as="geometry" />
        </mxCell>
        <mxCell id="f3lGKb51ZhDUjjMCLyhJ-201" value="" style="rounded=0;whiteSpace=wrap;html=1;fillColor=#B3B3B3;strokeColor=none;" vertex="1" parent="f3lGKb51ZhDUjjMCLyhJ-199">
          <mxGeometry y="11.111111111111109" width="70.90909090909092" height="5.5555555555555545" as="geometry" />
        </mxCell>
        <mxCell id="f3lGKb51ZhDUjjMCLyhJ-202" value="" style="rounded=0;whiteSpace=wrap;html=1;fillColor=#B3B3B3;strokeColor=none;" vertex="1" parent="f3lGKb51ZhDUjjMCLyhJ-199">
          <mxGeometry y="22.222222222222218" width="70.90909090909092" height="5.5555555555555545" as="geometry" />
        </mxCell>
        <mxCell id="f3lGKb51ZhDUjjMCLyhJ-203" value="" style="rounded=0;whiteSpace=wrap;html=1;fillColor=#B3B3B3;strokeColor=none;" vertex="1" parent="f3lGKb51ZhDUjjMCLyhJ-199">
          <mxGeometry y="33.33333333333332" width="47.27272727272727" height="5.5555555555555545" as="geometry" />
        </mxCell>
        <mxCell id="f3lGKb51ZhDUjjMCLyhJ-204" value="" style="group" vertex="1" connectable="0" parent="1">
          <mxGeometry x="225.9990909090909" y="167.99555555555554" width="41.36363636363637" height="38.888888888888886" as="geometry" />
        </mxCell>
        <mxCell id="f3lGKb51ZhDUjjMCLyhJ-205" value="" style="rounded=0;whiteSpace=wrap;html=1;fillColor=none;strokeColor=#B3B3B3;strokeWidth=5;" vertex="1" parent="f3lGKb51ZhDUjjMCLyhJ-204">
          <mxGeometry width="41.36363636363637" height="38.888888888888886" as="geometry" />
        </mxCell>
        <mxCell id="f3lGKb51ZhDUjjMCLyhJ-206" value="" style="endArrow=none;html=1;strokeColor=#B3B3B3;exitX=0;exitY=0;exitDx=0;exitDy=0;entryX=1;entryY=1;entryDx=0;entryDy=0;strokeWidth=5;" edge="1" parent="f3lGKb51ZhDUjjMCLyhJ-204" source="f3lGKb51ZhDUjjMCLyhJ-205" target="f3lGKb51ZhDUjjMCLyhJ-205">
          <mxGeometry width="50" height="50" relative="1" as="geometry">
            <mxPoint x="15.90909090909091" y="-6.481481481481481" as="sourcePoint" />
            <mxPoint x="31.81818181818182" y="-38.888888888888886" as="targetPoint" />
          </mxGeometry>
        </mxCell>
        <mxCell id="f3lGKb51ZhDUjjMCLyhJ-207" value="" style="endArrow=none;html=1;strokeColor=#B3B3B3;exitX=0;exitY=1;exitDx=0;exitDy=0;entryX=1;entryY=0;entryDx=0;entryDy=0;strokeWidth=5;" edge="1" parent="f3lGKb51ZhDUjjMCLyhJ-204" source="f3lGKb51ZhDUjjMCLyhJ-205" target="f3lGKb51ZhDUjjMCLyhJ-205">
          <mxGeometry width="50" height="50" relative="1" as="geometry">
            <mxPoint x="3.1818181818181817" y="6.481481481481481" as="sourcePoint" />
            <mxPoint x="44.54545454545455" y="45.370370370370374" as="targetPoint" />
          </mxGeometry>
        </mxCell>
        <mxCell id="f3lGKb51ZhDUjjMCLyhJ-208" value="Playful" style="text;html=1;strokeColor=none;fillColor=none;align=center;verticalAlign=middle;whiteSpace=wrap;rounded=0;" vertex="1" parent="1">
          <mxGeometry x="248.5" y="19.999999999999996" width="70" height="20" as="geometry" />
        </mxCell>
        <mxCell id="f3lGKb51ZhDUjjMCLyhJ-196" value="" style="rounded=0;whiteSpace=wrap;html=1;fillColor=none;strokeColor=#B3B3B3;strokeWidth=5;" vertex="1" parent="1">
          <mxGeometry x="299.9990909090909" y="116.99555555555554" width="41.36363636363637" height="38.888888888888886" as="geometry" />
        </mxCell>
        <mxCell id="f3lGKb51ZhDUjjMCLyhJ-197" value="" style="endArrow=none;html=1;strokeColor=#B3B3B3;exitX=0;exitY=0;exitDx=0;exitDy=0;entryX=1;entryY=1;entryDx=0;entryDy=0;strokeWidth=5;" edge="1" parent="1" source="f3lGKb51ZhDUjjMCLyhJ-196" target="f3lGKb51ZhDUjjMCLyhJ-196">
          <mxGeometry width="50" height="50" relative="1" as="geometry">
            <mxPoint x="241.90818181818182" y="110.51407407407406" as="sourcePoint" />
            <mxPoint x="257.8172727272727" y="78.10666666666665" as="targetPoint" />
          </mxGeometry>
        </mxCell>
        <mxCell id="f3lGKb51ZhDUjjMCLyhJ-198" value="" style="endArrow=none;html=1;strokeColor=#B3B3B3;exitX=0;exitY=1;exitDx=0;exitDy=0;entryX=1;entryY=0;entryDx=0;entryDy=0;strokeWidth=5;" edge="1" parent="1" source="f3lGKb51ZhDUjjMCLyhJ-196" target="f3lGKb51ZhDUjjMCLyhJ-196">
          <mxGeometry width="50" height="50" relative="1" as="geometry">
            <mxPoint x="229.1809090909091" y="123.47703703703701" as="sourcePoint" />
            <mxPoint x="270.54454545454547" y="162.36592592592592" as="targetPoint" />
          </mxGeometry>
        </mxCell>
        <mxCell id="f3lGKb51ZhDUjjMCLyhJ-210" value="" style="group" vertex="1" connectable="0" parent="1">
          <mxGeometry x="193.73" y="310" width="220" height="380" as="geometry" />
        </mxCell>
        <mxCell id="f3lGKb51ZhDUjjMCLyhJ-34" value="Article" style="rounded=0;whiteSpace=wrap;html=1;fillColor=none;verticalAlign=top;" vertex="1" parent="f3lGKb51ZhDUjjMCLyhJ-210">
          <mxGeometry width="197" height="273" as="geometry" />
        </mxCell>
        <mxCell id="f3lGKb51ZhDUjjMCLyhJ-56" value="" style="group" vertex="1" connectable="0" parent="f3lGKb51ZhDUjjMCLyhJ-210">
          <mxGeometry x="10" y="30" width="78" height="114" as="geometry" />
        </mxCell>
        <mxCell id="f3lGKb51ZhDUjjMCLyhJ-41" value="Block Image" style="rounded=0;whiteSpace=wrap;html=1;fillColor=none;verticalAlign=top;spacing=0;" vertex="1" parent="f3lGKb51ZhDUjjMCLyhJ-56">
          <mxGeometry width="78" height="114" as="geometry" />
        </mxCell>
        <mxCell id="f3lGKb51ZhDUjjMCLyhJ-36" value="" style="group" vertex="1" connectable="0" parent="f3lGKb51ZhDUjjMCLyhJ-56">
          <mxGeometry x="3.5" y="69.99555555555555" width="70.90909090909092" height="38.888888888888886" as="geometry" />
        </mxCell>
        <mxCell id="f3lGKb51ZhDUjjMCLyhJ-37" value="" style="rounded=0;whiteSpace=wrap;html=1;fillColor=#B3B3B3;strokeColor=none;" vertex="1" parent="f3lGKb51ZhDUjjMCLyhJ-36">
          <mxGeometry width="70.90909090909092" height="5.5555555555555545" as="geometry" />
        </mxCell>
        <mxCell id="f3lGKb51ZhDUjjMCLyhJ-38" value="" style="rounded=0;whiteSpace=wrap;html=1;fillColor=#B3B3B3;strokeColor=none;" vertex="1" parent="f3lGKb51ZhDUjjMCLyhJ-36">
          <mxGeometry y="11.111111111111109" width="70.90909090909092" height="5.5555555555555545" as="geometry" />
        </mxCell>
        <mxCell id="f3lGKb51ZhDUjjMCLyhJ-39" value="" style="rounded=0;whiteSpace=wrap;html=1;fillColor=#B3B3B3;strokeColor=none;" vertex="1" parent="f3lGKb51ZhDUjjMCLyhJ-36">
          <mxGeometry y="22.222222222222218" width="70.90909090909092" height="5.5555555555555545" as="geometry" />
        </mxCell>
        <mxCell id="f3lGKb51ZhDUjjMCLyhJ-40" value="" style="rounded=0;whiteSpace=wrap;html=1;fillColor=#B3B3B3;strokeColor=none;" vertex="1" parent="f3lGKb51ZhDUjjMCLyhJ-36">
          <mxGeometry y="33.33333333333332" width="47.27272727272727" height="5.5555555555555545" as="geometry" />
        </mxCell>
        <mxCell id="f3lGKb51ZhDUjjMCLyhJ-42" value="" style="group" vertex="1" connectable="0" parent="f3lGKb51ZhDUjjMCLyhJ-56">
          <mxGeometry x="5.909090909090935" y="25.555555555555557" width="41.36363636363637" height="38.888888888888886" as="geometry" />
        </mxCell>
        <mxCell id="f3lGKb51ZhDUjjMCLyhJ-43" value="" style="rounded=0;whiteSpace=wrap;html=1;fillColor=none;strokeColor=#B3B3B3;strokeWidth=5;" vertex="1" parent="f3lGKb51ZhDUjjMCLyhJ-42">
          <mxGeometry width="41.36363636363637" height="38.888888888888886" as="geometry" />
        </mxCell>
        <mxCell id="f3lGKb51ZhDUjjMCLyhJ-44" value="" style="endArrow=none;html=1;strokeColor=#B3B3B3;exitX=0;exitY=0;exitDx=0;exitDy=0;entryX=1;entryY=1;entryDx=0;entryDy=0;strokeWidth=5;" edge="1" parent="f3lGKb51ZhDUjjMCLyhJ-42" source="f3lGKb51ZhDUjjMCLyhJ-43" target="f3lGKb51ZhDUjjMCLyhJ-43">
          <mxGeometry width="50" height="50" relative="1" as="geometry">
            <mxPoint x="15.90909090909091" y="-6.481481481481481" as="sourcePoint" />
            <mxPoint x="31.81818181818182" y="-38.888888888888886" as="targetPoint" />
          </mxGeometry>
        </mxCell>
        <mxCell id="f3lGKb51ZhDUjjMCLyhJ-45" value="" style="endArrow=none;html=1;strokeColor=#B3B3B3;exitX=0;exitY=1;exitDx=0;exitDy=0;entryX=1;entryY=0;entryDx=0;entryDy=0;strokeWidth=5;" edge="1" parent="f3lGKb51ZhDUjjMCLyhJ-42" source="f3lGKb51ZhDUjjMCLyhJ-43" target="f3lGKb51ZhDUjjMCLyhJ-43">
          <mxGeometry width="50" height="50" relative="1" as="geometry">
            <mxPoint x="3.1818181818181817" y="6.481481481481481" as="sourcePoint" />
            <mxPoint x="44.54545454545455" y="45.370370370370374" as="targetPoint" />
          </mxGeometry>
        </mxCell>
        <mxCell id="f3lGKb51ZhDUjjMCLyhJ-57" value="" style="group" vertex="1" connectable="0" parent="f3lGKb51ZhDUjjMCLyhJ-210">
          <mxGeometry x="10" y="150" width="78" height="114" as="geometry" />
        </mxCell>
        <mxCell id="f3lGKb51ZhDUjjMCLyhJ-58" value="Block Image" style="rounded=0;whiteSpace=wrap;html=1;fillColor=none;verticalAlign=top;spacing=0;" vertex="1" parent="f3lGKb51ZhDUjjMCLyhJ-57">
          <mxGeometry width="78" height="114" as="geometry" />
        </mxCell>
        <mxCell id="f3lGKb51ZhDUjjMCLyhJ-59" value="" style="group" vertex="1" connectable="0" parent="f3lGKb51ZhDUjjMCLyhJ-57">
          <mxGeometry x="3.5" y="69.99555555555555" width="70.90909090909092" height="38.888888888888886" as="geometry" />
        </mxCell>
        <mxCell id="f3lGKb51ZhDUjjMCLyhJ-60" value="" style="rounded=0;whiteSpace=wrap;html=1;fillColor=#B3B3B3;strokeColor=none;" vertex="1" parent="f3lGKb51ZhDUjjMCLyhJ-59">
          <mxGeometry width="70.90909090909092" height="5.5555555555555545" as="geometry" />
        </mxCell>
        <mxCell id="f3lGKb51ZhDUjjMCLyhJ-61" value="" style="rounded=0;whiteSpace=wrap;html=1;fillColor=#B3B3B3;strokeColor=none;" vertex="1" parent="f3lGKb51ZhDUjjMCLyhJ-59">
          <mxGeometry y="11.111111111111109" width="70.90909090909092" height="5.5555555555555545" as="geometry" />
        </mxCell>
        <mxCell id="f3lGKb51ZhDUjjMCLyhJ-62" value="" style="rounded=0;whiteSpace=wrap;html=1;fillColor=#B3B3B3;strokeColor=none;" vertex="1" parent="f3lGKb51ZhDUjjMCLyhJ-59">
          <mxGeometry y="22.222222222222218" width="70.90909090909092" height="5.5555555555555545" as="geometry" />
        </mxCell>
        <mxCell id="f3lGKb51ZhDUjjMCLyhJ-63" value="" style="rounded=0;whiteSpace=wrap;html=1;fillColor=#B3B3B3;strokeColor=none;" vertex="1" parent="f3lGKb51ZhDUjjMCLyhJ-59">
          <mxGeometry y="33.33333333333332" width="47.27272727272727" height="5.5555555555555545" as="geometry" />
        </mxCell>
        <mxCell id="f3lGKb51ZhDUjjMCLyhJ-64" value="" style="group" vertex="1" connectable="0" parent="f3lGKb51ZhDUjjMCLyhJ-57">
          <mxGeometry x="5.909090909090935" y="25.555555555555557" width="41.36363636363637" height="38.888888888888886" as="geometry" />
        </mxCell>
        <mxCell id="f3lGKb51ZhDUjjMCLyhJ-65" value="" style="rounded=0;whiteSpace=wrap;html=1;fillColor=none;strokeColor=#B3B3B3;strokeWidth=5;" vertex="1" parent="f3lGKb51ZhDUjjMCLyhJ-64">
          <mxGeometry width="41.36363636363637" height="38.888888888888886" as="geometry" />
        </mxCell>
        <mxCell id="f3lGKb51ZhDUjjMCLyhJ-66" value="" style="endArrow=none;html=1;strokeColor=#B3B3B3;exitX=0;exitY=0;exitDx=0;exitDy=0;entryX=1;entryY=1;entryDx=0;entryDy=0;strokeWidth=5;" edge="1" parent="f3lGKb51ZhDUjjMCLyhJ-64" source="f3lGKb51ZhDUjjMCLyhJ-65" target="f3lGKb51ZhDUjjMCLyhJ-65">
          <mxGeometry width="50" height="50" relative="1" as="geometry">
            <mxPoint x="15.90909090909091" y="-6.481481481481481" as="sourcePoint" />
            <mxPoint x="31.81818181818182" y="-38.888888888888886" as="targetPoint" />
          </mxGeometry>
        </mxCell>
        <mxCell id="f3lGKb51ZhDUjjMCLyhJ-67" value="" style="endArrow=none;html=1;strokeColor=#B3B3B3;exitX=0;exitY=1;exitDx=0;exitDy=0;entryX=1;entryY=0;entryDx=0;entryDy=0;strokeWidth=5;" edge="1" parent="f3lGKb51ZhDUjjMCLyhJ-64" source="f3lGKb51ZhDUjjMCLyhJ-65" target="f3lGKb51ZhDUjjMCLyhJ-65">
          <mxGeometry width="50" height="50" relative="1" as="geometry">
            <mxPoint x="3.1818181818181817" y="6.481481481481481" as="sourcePoint" />
            <mxPoint x="44.54545454545455" y="45.370370370370374" as="targetPoint" />
          </mxGeometry>
        </mxCell>
        <mxCell id="f3lGKb51ZhDUjjMCLyhJ-83" value="" style="group" vertex="1" connectable="0" parent="f3lGKb51ZhDUjjMCLyhJ-210">
          <mxGeometry x="96.27" y="100" width="90" height="94" as="geometry" />
        </mxCell>
        <mxCell id="f3lGKb51ZhDUjjMCLyhJ-69" value="Voice &amp;amp; Tone" style="rounded=0;whiteSpace=wrap;html=1;fillColor=none;verticalAlign=top;spacing=0;" vertex="1" parent="f3lGKb51ZhDUjjMCLyhJ-83">
          <mxGeometry width="90" height="94" as="geometry" />
        </mxCell>
        <mxCell id="f3lGKb51ZhDUjjMCLyhJ-79" value="Serious" style="ellipse;whiteSpace=wrap;html=1;strokeColor=#B3B3B3;strokeWidth=5;fillColor=none;labelPosition=right;verticalLabelPosition=middle;align=left;verticalAlign=middle;spacingLeft=7;" vertex="1" parent="f3lGKb51ZhDUjjMCLyhJ-83">
          <mxGeometry x="10" y="30" width="20" height="20" as="geometry" />
        </mxCell>
        <mxCell id="f3lGKb51ZhDUjjMCLyhJ-80" value="Playful" style="verticalLabelPosition=middle;verticalAlign=middle;html=1;shape=mxgraph.basic.tick;strokeColor=#B3B3B3;strokeWidth=5;fillColor=#B3B3B3;align=left;labelPosition=right;spacingLeft=1;" vertex="1" parent="f3lGKb51ZhDUjjMCLyhJ-83">
          <mxGeometry x="10" y="60" width="26" height="24" as="geometry" />
        </mxCell>
        <mxCell id="f3lGKb51ZhDUjjMCLyhJ-211" value="" style="group" vertex="1" connectable="0" parent="1">
          <mxGeometry x="30.5" y="521" width="130" height="50" as="geometry" />
        </mxCell>
        <mxCell id="f3lGKb51ZhDUjjMCLyhJ-212" value="" style="group" vertex="1" connectable="0" parent="f3lGKb51ZhDUjjMCLyhJ-211">
          <mxGeometry x="53.18181818181819" y="5.555555555555555" width="70.90909090909092" height="38.888888888888886" as="geometry" />
        </mxCell>
        <mxCell id="f3lGKb51ZhDUjjMCLyhJ-213" value="" style="rounded=0;whiteSpace=wrap;html=1;fillColor=#B3B3B3;strokeColor=none;" vertex="1" parent="f3lGKb51ZhDUjjMCLyhJ-212">
          <mxGeometry width="70.90909090909092" height="5.5555555555555545" as="geometry" />
        </mxCell>
        <mxCell id="f3lGKb51ZhDUjjMCLyhJ-214" value="" style="rounded=0;whiteSpace=wrap;html=1;fillColor=#B3B3B3;strokeColor=none;" vertex="1" parent="f3lGKb51ZhDUjjMCLyhJ-212">
          <mxGeometry y="11.111111111111109" width="70.90909090909092" height="5.5555555555555545" as="geometry" />
        </mxCell>
        <mxCell id="f3lGKb51ZhDUjjMCLyhJ-215" value="" style="rounded=0;whiteSpace=wrap;html=1;fillColor=#B3B3B3;strokeColor=none;" vertex="1" parent="f3lGKb51ZhDUjjMCLyhJ-212">
          <mxGeometry y="22.222222222222218" width="70.90909090909092" height="5.5555555555555545" as="geometry" />
        </mxCell>
        <mxCell id="f3lGKb51ZhDUjjMCLyhJ-216" value="" style="rounded=0;whiteSpace=wrap;html=1;fillColor=#B3B3B3;strokeColor=none;" vertex="1" parent="f3lGKb51ZhDUjjMCLyhJ-212">
          <mxGeometry y="33.33333333333332" width="47.27272727272727" height="5.5555555555555545" as="geometry" />
        </mxCell>
        <mxCell id="f3lGKb51ZhDUjjMCLyhJ-217" value="Block Image-Left" style="rounded=0;whiteSpace=wrap;html=1;fillColor=none;verticalAlign=top;spacing=0;" vertex="1" parent="f3lGKb51ZhDUjjMCLyhJ-211">
          <mxGeometry y="-20" width="130" height="70" as="geometry" />
        </mxCell>
        <mxCell id="f3lGKb51ZhDUjjMCLyhJ-218" value="" style="group" vertex="1" connectable="0" parent="f3lGKb51ZhDUjjMCLyhJ-211">
          <mxGeometry x="5.909090909090909" y="5.555555555555555" width="41.36363636363637" height="38.888888888888886" as="geometry" />
        </mxCell>
        <mxCell id="f3lGKb51ZhDUjjMCLyhJ-219" value="" style="rounded=0;whiteSpace=wrap;html=1;fillColor=none;strokeColor=#B3B3B3;strokeWidth=5;" vertex="1" parent="f3lGKb51ZhDUjjMCLyhJ-218">
          <mxGeometry width="41.36363636363637" height="38.888888888888886" as="geometry" />
        </mxCell>
        <mxCell id="f3lGKb51ZhDUjjMCLyhJ-220" value="" style="endArrow=none;html=1;strokeColor=#B3B3B3;exitX=0;exitY=0;exitDx=0;exitDy=0;entryX=1;entryY=1;entryDx=0;entryDy=0;strokeWidth=5;" edge="1" parent="f3lGKb51ZhDUjjMCLyhJ-218" source="f3lGKb51ZhDUjjMCLyhJ-219" target="f3lGKb51ZhDUjjMCLyhJ-219">
          <mxGeometry width="50" height="50" relative="1" as="geometry">
            <mxPoint x="15.90909090909091" y="-6.481481481481481" as="sourcePoint" />
            <mxPoint x="31.81818181818182" y="-38.888888888888886" as="targetPoint" />
          </mxGeometry>
        </mxCell>
        <mxCell id="f3lGKb51ZhDUjjMCLyhJ-221" value="" style="endArrow=none;html=1;strokeColor=#B3B3B3;exitX=0;exitY=1;exitDx=0;exitDy=0;entryX=1;entryY=0;entryDx=0;entryDy=0;strokeWidth=5;" edge="1" parent="f3lGKb51ZhDUjjMCLyhJ-218" source="f3lGKb51ZhDUjjMCLyhJ-219" target="f3lGKb51ZhDUjjMCLyhJ-219">
          <mxGeometry width="50" height="50" relative="1" as="geometry">
            <mxPoint x="3.1818181818181817" y="6.481481481481481" as="sourcePoint" />
            <mxPoint x="44.54545454545455" y="45.370370370370374" as="targetPoint" />
          </mxGeometry>
        </mxCell>
        <mxCell id="f3lGKb51ZhDUjjMCLyhJ-222" value="" style="endArrow=classic;html=1;strokeColor=#000000;strokeWidth=5;" edge="1" parent="1">
          <mxGeometry width="50" height="50" relative="1" as="geometry">
            <mxPoint x="100" y="300" as="sourcePoint" />
            <mxPoint x="120" y="230" as="targetPoint" />
          </mxGeometry>
        </mxCell>
        <mxCell id="f3lGKb51ZhDUjjMCLyhJ-223" value="" style="endArrow=classic;html=1;strokeColor=#000000;strokeWidth=5;" edge="1" parent="1">
          <mxGeometry width="50" height="50" relative="1" as="geometry">
            <mxPoint x="300" y="300" as="sourcePoint" />
            <mxPoint x="287.36" y="230" as="targetPoint" />
          </mxGeometry>
        </mxCell>
        <mxCell id="f3lGKb51ZhDUjjMCLyhJ-224" value="" style="endArrow=none;html=1;strokeColor=#FF3333;strokeWidth=5;" edge="1" parent="1">
          <mxGeometry width="50" height="50" relative="1" as="geometry">
            <mxPoint x="88.5" y="290" as="sourcePoint" />
            <mxPoint x="128.5" y="250" as="targetPoint" />
          </mxGeometry>
        </mxCell>
        <mxCell id="f3lGKb51ZhDUjjMCLyhJ-225" value="" style="endArrow=none;html=1;strokeColor=#FF3333;strokeWidth=5;" edge="1" parent="1">
          <mxGeometry width="50" height="50" relative="1" as="geometry">
            <mxPoint x="88.5" y="250" as="sourcePoint" />
            <mxPoint x="128.5" y="290" as="targetPoint" />
          </mxGeometry>
        </mxCell>
      </root>
    </mxGraphModel>
  </diagram>
</mxfile>
